<?xml version="1.0" encoding="iso-8859-1"?>
<!-- Uploaded to: SVG Repo, www.svgrepo.com, Generator: SVG Repo Mixer Tools -->
<svg height="800px" width="800px" version="1.1" id="Layer_1" xmlns="http://www.w3.org/2000/svg" xmlns:xlink="http://www.w3.org/1999/xlink" 
	 viewBox="0 0 512 512" xml:space="preserve">
<g>
	<circle style="fill:#003A7F;" cx="157.33" cy="350.919" r="24.148"/>
	<circle style="fill:#003A7F;" cx="401.356" cy="350.919" r="24.148"/>
</g>
<path style="fill:#DEDDE1;" d="M336.457,150.983v-30.79c0-12.704-10.298-23.002-23.002-23.002H33.451
	c-12.704,0-23.002,10.299-23.002,23.002v230.911H49.11l19.542,0.084l37.329-0.084c0-28.361,22.991-51.352,51.351-51.352
	s51.352,22.991,51.352,51.352h127.773v-8.051V150.983z"/>
<path style="fill:#FFFFFF;" d="M444.045,150.983H336.457v192.07v8.051h13.551c0-28.361,22.991-51.352,51.352-51.352
	s51.352,22.991,51.352,51.352l28.987,0.084l19.853-0.084V208.488C501.551,176.729,475.805,150.983,444.045,150.983z"/>
<path style="fill:#27B5F7;" d="M470.674,261.394v-26.131c0-25.797-20.913-46.71-46.71-46.71h-46.756v72.841H470.674z"/>
<path d="M191.934,350.922c0-19.08-15.522-34.602-34.602-34.602s-34.602,15.522-34.602,34.602c0,19.08,15.522,34.602,34.602,34.602
	S191.934,370.001,191.934,350.922z M143.629,350.922c0-7.556,6.147-13.704,13.704-13.704c7.557,0,13.704,6.147,13.704,13.704
	c0,7.557-6.147,13.704-13.704,13.704C149.776,364.625,143.629,358.477,143.629,350.922z"/>
<path d="M435.962,350.922c0-19.08-15.522-34.602-34.602-34.602c-19.08,0-34.601,15.522-34.601,34.602
	c0,19.08,15.522,34.602,34.602,34.602C420.441,385.523,435.962,370.001,435.962,350.922z M387.657,350.922
	c0-7.556,6.147-13.704,13.704-13.704c7.557,0,13.704,6.147,13.704,13.704c0,7.557-6.147,13.704-13.704,13.704
	C393.804,364.625,387.657,358.477,387.657,350.922z"/>
<path d="M444.045,140.534h-97.139v-20.341c0-18.446-15.006-33.451-33.451-33.451H33.451C15.006,86.741,0,101.747,0,120.193v230.911
	c0,5.771,4.678,10.449,10.449,10.449h38.616l19.61,0.084l37.329-0.084c5.762-0.013,10.426-4.687,10.426-10.449
	c0-22.553,18.349-40.902,40.903-40.902s40.903,18.349,40.903,40.902c0,5.771,4.678,10.449,10.449,10.449h141.325
	c5.771,0,10.449-4.678,10.449-10.449c0-22.553,18.349-40.902,40.902-40.902c22.553,0,40.903,18.349,40.903,40.902
	c0,5.759,4.659,10.432,10.419,10.449l29.061,0.084l19.853-0.084c5.753-0.024,10.405-4.696,10.405-10.449V208.488
	C512,171.018,481.515,140.534,444.045,140.534z M326.008,340.654H218.249c-4.979-29.118-30.4-51.352-60.916-51.352
	c-30.525,0-55.951,22.243-60.921,51.373l-27.715,0.063l-19.587-0.085H20.898V161.052H251.16c5.771,0,10.449-4.678,10.449-10.449
	s-4.678-10.449-10.449-10.449H20.898v-19.962c0-6.922,5.632-12.553,12.553-12.553h280.003c6.922,0,12.553,5.632,12.553,12.553
	V340.654z M491.102,340.698l-9.374,0.04l-19.447-0.056c-4.966-29.133-30.395-51.379-60.922-51.379
	c-23.52,0-44.014,13.209-54.454,32.596V161.432h97.139c25.948,0,47.057,21.11,47.057,47.057V340.698z"/>
<path d="M423.964,178.104h-46.756c-5.771,0-10.449,4.678-10.449,10.449v72.841c0,5.771,4.678,10.449,10.449,10.449h93.466
	c5.771,0,10.449-4.678,10.449-10.449v-26.131C481.123,203.746,455.481,178.104,423.964,178.104z M460.225,250.946h-72.568v-51.943
	h36.308c19.994,0,36.261,16.267,36.261,36.261v15.682H460.225z"/>
<path d="M285.101,140.153h-0.137c-5.771,0-10.449,4.678-10.449,10.449s4.678,10.449,10.449,10.449h0.137
	c5.771,0,10.449-4.678,10.449-10.449S290.872,140.153,285.101,140.153z"/>
<path d="M501.551,404.36h-0.137c-5.771,0-10.449,4.678-10.449,10.449c0,5.771,4.678,10.449,10.449,10.449h0.137
	c5.771,0,10.449-4.678,10.449-10.449C512,409.038,507.322,404.36,501.551,404.36z"/>
<path d="M467.61,404.361H10.449C4.678,404.361,0,409.039,0,414.81c0,5.771,4.678,10.449,10.449,10.449H467.61
	c5.771,0,10.449-4.678,10.449-10.449C478.059,409.039,473.381,404.361,467.61,404.361z"/>
</svg>